<svg xmlns:xlink="http://www.w3.org/1999/xlink" xmlns="http://www.w3.org/2000/svg" aria-hidden="true" class="svg-icon" width="1024"  height="1024" ><defs><symbol id="bili-zhishi" viewBox="0 0 1024 1024"><path d="M781.3671875 132.3125C842.2859375 132.3125 891.6875 182.684375 891.6875 244.8265625v533.334375c0 62.1-49.359375 112.471875-110.3203125 112.471875H518.75c0-16.115625-25.6921875-29.1515625-57.375-29.1515625-31.6828125 0-57.375 13.078125-57.375 29.1515625H284.8203125C223.9015625 890.6328125 174.5 840.2609375 174.5 778.203125V244.8265625C174.5 182.684375 223.859375 132.3125 284.8203125 132.3125h496.546875z" fill="#FBC92A"></path><path d="M781.3671875 132.3125C842.2859375 132.3125 891.6875 182.684375 891.6875 244.8265625v209.671875c-49.4859375 4.89375-86.0625 22.021875-86.0625 42.3984375 0 20.3765625 36.5765625 37.546875 86.0625 42.35625v34.7203125c0 62.1421875-49.359375 112.5140625-110.3203125 112.5140625H284.8203125C223.9015625 686.4875 174.5 636.115625 174.5 573.9734375V244.8265625C174.5 182.684375 223.859375 132.3125 284.8203125 132.3125h496.546875z" fill="#FFEA85"></path><path d="M346.625 686.4875a114.75 58.3453125 0 1 0 229.5 0 114.75 58.3453125 0 1 0-229.5 0Z" fill="#FBC92A"></path><path d="M260.5625 803.1359375a43.03125 42.1875 0 1 0 86.0625 0 43.03125 42.1875 0 1 0-86.0625 0Z" fill="#F4B828"></path><path d="M490.0625 803.1359375a71.71875 42.1875 0 1 0 143.4375 0 71.71875 42.1875 0 1 0-143.4375 0Z" fill="#F4B828"></path><path d="M674.50625 477.4484375a27.2109375 27.2109375 0 0 1 39.0234375 1.2234375 28.51875 28.51875 0 0 1-1.18125 39.740625 238.021875 238.021875 0 0 1-330.91875 0 28.51875 28.51875 0 0 1-1.18125-39.740625 27.2109375 27.2109375 0 0 1 38.98125-1.2234375 183.6421875 183.6421875 0 0 0 255.2765625 0z" fill="#FBC92A"></path><path d="M734.7921875 272.9234375h5.1890625a41.765625 41.765625 0 0 1 41.34375 42.1875v56.278125c0 23.2875-18.478125 42.1875-41.34375 42.1875h-5.1890625a41.765625 41.765625 0 0 1-41.34375-42.1875V315.1109375c0-23.2875 18.5203125-42.1875 41.34375-42.1875zM353.796875 272.9234375h5.1890625a41.765625 41.765625 0 0 1 41.34375 42.1875v56.278125c0 23.2875-18.5203125 42.1875-41.34375 42.1875H353.796875a41.765625 41.765625 0 0 1-41.34375-42.1875V315.1109375c0-23.2875 18.478125-42.1875 41.34375-42.1875z" fill="#FBC92A"></path></symbol></defs><use xlink:href="#bili-zhishi" fill="#212121"></use></svg>