<svg xmlns:xlink="http://www.w3.org/1999/xlink" xmlns="http://www.w3.org/2000/svg" viewBox="0 0 28 28" width="28" height="28" preserveAspectRatio="xMidYMid meet" style="width: 100%; height: 100%; transform: translate3d(0px, 0px, 0px);"><defs><clipPath id="__lottie_element_257"><rect width="28" height="28" x="0" y="0"></rect></clipPath></defs><g clip-path="url(#__lottie_element_257)" fill-opacity="0.9" fill="#FFFFFF"><g transform="matrix(1,0,0,1,24.812999725341797,14)" opacity="1" style="display: none;" fill="#FFFFFF" fill-opacity="0.9"><g opacity="1" transform="matrix(1,0,0,1,0,0)" fill="#FFFFFF" fill-opacity="0.9"><path fill="#FFFFFF" fill-opacity="1" d=" M-5.484000205993652,-10 C-7.953000068664551,-10 -8,-7.984000205993652 -8,-7.984000205993652 C-8,-7.984000205993652 -8.008000373840332,7.984000205993652 -8.008000373840332,7.984000205993652 C-8.008000373840332,7.984000205993652 -7.984000205993652,9.991999626159668 -5.5,9.991999626159668 C-3.0160000324249268,9.991999626159668 -3.003999948501587,7.995999813079834 -3.003999948501587,7.995999813079834 C-3.003999948501587,7.995999813079834 -2.9839999675750732,-8 -2.9839999675750732,-8 C-2.9839999675750732,-8 -3.015000104904175,-10 -5.484000205993652,-10z"></path><path stroke-linecap="butt" stroke-linejoin="miter" fill-opacity="0" stroke-miterlimit="4" stroke="#FFFFFF" stroke-opacity="1" stroke-width="0px" d=" M-5.484000205993652,-10 C-7.953000068664551,-10 -8,-7.984000205993652 -8,-7.984000205993652 C-8,-7.984000205993652 -8.008000373840332,7.984000205993652 -8.008000373840332,7.984000205993652 C-8.008000373840332,7.984000205993652 -7.984000205993652,9.991999626159668 -5.5,9.991999626159668 C-3.0160000324249268,9.991999626159668 -3.003999948501587,7.995999813079834 -3.003999948501587,7.995999813079834 C-3.003999948501587,7.995999813079834 -2.9839999675750732,-8 -2.9839999675750732,-8 C-2.9839999675750732,-8 -3.015000104904175,-10 -5.484000205993652,-10z" fill="#FFFFFF"></path></g></g><g transform="matrix(1,0,0,1,14,14)" opacity="1" style="display: none;" fill="#FFFFFF" fill-opacity="0.9"><g opacity="1" transform="matrix(1,0,0,1,0,0)" fill="#FFFFFF" fill-opacity="0.9"><path fill="#FFFFFF" fill-opacity="1" d=" M-5.484000205993652,-10 C-7.953000068664551,-10 -8,-7.984000205993652 -8,-7.984000205993652 C-8,-7.984000205993652 -8.008000373840332,7.984000205993652 -8.008000373840332,7.984000205993652 C-8.008000373840332,7.984000205993652 -7.984000205993652,9.991999626159668 -5.5,9.991999626159668 C-3.0160000324249268,9.991999626159668 -3.003999948501587,7.995999813079834 -3.003999948501587,7.995999813079834 C-3.003999948501587,7.995999813079834 -2.9839999675750732,-8 -2.9839999675750732,-8 C-2.9839999675750732,-8 -3.015000104904175,-10 -5.484000205993652,-10z"></path><path stroke-linecap="butt" stroke-linejoin="miter" fill-opacity="0" stroke-miterlimit="4" stroke="#FFFFFF" stroke-opacity="1" stroke-width="0px" d=" M-5.484000205993652,-10 C-7.953000068664551,-10 -8,-7.984000205993652 -8,-7.984000205993652 C-8,-7.984000205993652 -8.008000373840332,7.984000205993652 -8.008000373840332,7.984000205993652 C-8.008000373840332,7.984000205993652 -7.984000205993652,9.991999626159668 -5.5,9.991999626159668 C-3.0160000324249268,9.991999626159668 -3.003999948501587,7.995999813079834 -3.003999948501587,7.995999813079834 C-3.003999948501587,7.995999813079834 -2.9839999675750732,-8 -2.9839999675750732,-8 C-2.9839999675750732,-8 -3.015000104904175,-10 -5.484000205993652,-10z" fill="#FFFFFF"></path></g></g><g style="display: block;" transform="matrix(1,0,0,1,14,14)" opacity="1" fill="#FFFFFF" fill-opacity="0.9"><g opacity="1" transform="matrix(1,0,0,1,0,0)" fill="#FFFFFF" fill-opacity="0.9"><path fill="#FFFFFF" fill-opacity="1" d="M0 0"></path><path stroke-linecap="butt" stroke-linejoin="miter" fill-opacity="0" stroke-miterlimit="4" stroke="#FFFFFF" stroke-opacity="1" stroke-width="0px" d="M0 0" fill="#FFFFFF"></path></g><g opacity="1" transform="matrix(1,0,0,1,0,0)" fill="#FFFFFF" fill-opacity="0.9"><path fill="#FFFFFF" fill-opacity="1" d=" M-7.031000137329102,-10.875 C-7.031000137329102,-10.875 -8.32800006866455,-11.25 -9.42199993133545,-10.468999862670898 C-10.109999656677246,-9.906999588012695 -10,-7.992000102996826 -10,-7.992000102996826 C-10,-7.992000102996826 -10,8.015999794006348 -10,8.015999794006348 C-10,8.015999794006348 -10.125,10.241999626159668 -9,10.991999626159668 C-7.875,11.741999626159668 -5,10.031000137329102 -5,10.031000137329102 C-5,10.031000137329102 7.968999862670898,1.875 7.968999862670898,1.875 C7.968999862670898,1.875 9,1.062000036239624 9,0 C9,-1.062000036239624 7.968999862670898,-1.937999963760376 7.968999862670898,-1.937999963760376 C7.968999862670898,-1.937999963760376 -7.031000137329102,-10.875 -7.031000137329102,-10.875z"></path><path stroke-linecap="butt" stroke-linejoin="miter" fill-opacity="0" stroke-miterlimit="4" stroke="#FFFFFF" stroke-opacity="1" stroke-width="0px" d=" M-7.031000137329102,-10.875 C-7.031000137329102,-10.875 -8.32800006866455,-11.25 -9.42199993133545,-10.468999862670898 C-10.109999656677246,-9.906999588012695 -10,-7.992000102996826 -10,-7.992000102996826 C-10,-7.992000102996826 -10,8.015999794006348 -10,8.015999794006348 C-10,8.015999794006348 -10.125,10.241999626159668 -9,10.991999626159668 C-7.875,11.741999626159668 -5,10.031000137329102 -5,10.031000137329102 C-5,10.031000137329102 7.968999862670898,1.875 7.968999862670898,1.875 C7.968999862670898,1.875 9,1.062000036239624 9,0 C9,-1.062000036239624 7.968999862670898,-1.937999963760376 7.968999862670898,-1.937999963760376 C7.968999862670898,-1.937999963760376 -7.031000137329102,-10.875 -7.031000137329102,-10.875z" fill="#FFFFFF"></path></g></g></g></svg>