<svg xmlns="http://www.w3.org/2000/svg" viewBox="0 0 88 88" width="88" height="88" preserveAspectRatio="xMidYMid meet" style="width: 100%; height: 100%; transform: translate3d(0px, 0px, 0px);"><defs><clipPath id="__lottie_element_140"><rect width="88" height="88" x="0" y="0"></rect></clipPath></defs><g clip-path="url(#__lottie_element_140)"><g transform="matrix(1,0,0,1,41,41)" opacity="1" style="display: block;"><g opacity="1" transform="matrix(1,0,0,1,0,0)"><path fill="rgb(255,255,255)" fill-opacity="1" d=" M26,-28 C30.420000076293945,-28 34,-24.420000076293945 34,-20 C34,-20 34,4 34,4 C34,4 26,4 26,4 C26,4 26,-16.799999237060547 26,-16.799999237060547 C26,-18.56999969482422 24.56999969482422,-20 22.799999237060547,-20 C22.799999237060547,-20 -22.799999237060547,-20 -22.799999237060547,-20 C-24.510000228881836,-20 -25.899999618530273,-18.65999984741211 -25.989999771118164,-16.979999542236328 C-25.989999771118164,-16.979999542236328 -26,-16.799999237060547 -26,-16.799999237060547 C-26,-16.799999237060547 -26,16.799999237060547 -26,16.799999237060547 C-26,18.510000228881836 -24.65999984741211,19.899999618530273 -22.979999542236328,19.989999771118164 C-22.979999542236328,19.989999771118164 -22.799999237060547,20 -22.799999237060547,20 C-22.799999237060547,20 2,20 2,20 C2,20 2,28 2,28 C2,28 -26,28 -26,28 C-30.420000076293945,28 -34,24.420000076293945 -34,20 C-34,20 -34,-20 -34,-20 C-34,-24.420000076293945 -30.420000076293945,-28 -26,-28 C-26,-28 26,-28 26,-28z"></path></g></g><g transform="matrix(1,0,0,1,67,65)" opacity="1" style="display: block;"><g opacity="1" transform="matrix(1,0,0,1,0,0)"><path fill="rgb(255,255,255)" fill-opacity="1" d=" M16,-8 C16,-8 16,8 16,8 C16,10.208999633789062 14.208999633789062,12 12,12 C12,12 -12,12 -12,12 C-14.208999633789062,12 -16,10.208999633789062 -16,8 C-16,8 -16,-8 -16,-8 C-16,-10.208999633789062 -14.208999633789062,-12 -12,-12 C-12,-12 12,-12 12,-12 C14.208999633789062,-12 16,-10.208999633789062 16,-8z"></path></g></g><g style="display: none;" transform="matrix(1,0,0,1,30.496000289916992,33.74300003051758)" opacity="0.0009460000002292191"><g opacity="1" transform="matrix(1,0,0,1,0,0)"><path fill="rgb(255,255,255)" fill-opacity="1" d=" M-4.038000106811523,-9.809000015258789 C-4.038000106811523,-9.809000015258789 2.2820000648498535,-3.499000072479248 2.2820000648498535,-3.499000072479248 C2.2820000648498535,-3.499000072479248 2.2820000648498535,-7.599999904632568 2.2820000648498535,-7.599999904632568 C2.2820000648498535,-8.65999984741211 3.0920000076293945,-9.520000457763672 4.131999969482422,-9.600000381469727 C4.131999969482422,-9.600000381469727 4.2820000648498535,-9.600000381469727 4.2820000648498535,-9.600000381469727 C4.2820000648498535,-9.600000381469727 8.281999588012695,-9.600000381469727 8.281999588012695,-9.600000381469727 C9.331999778747559,-9.600000381469727 10.192000389099121,-8.788999557495117 10.272000312805176,-7.749000072479248 C10.272000312805176,-7.749000072479248 10.281999588012695,-7.599999904632568 10.281999588012695,-7.599999904632568 C10.281999588012695,-7.599999904632568 10.281999588012695,8.399999618530273 10.281999588012695,8.399999618530273 C10.281999588012695,9.449999809265137 9.461999893188477,10.321000099182129 8.432000160217285,10.390999794006348 C8.432000160217285,10.390999794006348 8.281999588012695,10.399999618530273 8.281999588012695,10.399999618530273 C8.281999588012695,10.399999618530273 -7.7179999351501465,10.399999618530273 -7.7179999351501465,10.399999618530273 C-8.777999877929688,10.399999618530273 -9.637999534606934,9.581000328063965 -9.718000411987305,8.550999641418457 C-9.718000411987305,8.550999641418457 -9.718000411987305,8.399999618530273 -9.718000411987305,8.399999618530273 C-9.718000411987305,8.399999618530273 -9.718000411987305,4.400000095367432 -9.718000411987305,4.400000095367432 C-9.718000411987305,3.3399999141693115 -8.907999992370605,2.4800000190734863 -7.868000030517578,2.4000000953674316 C-7.868000030517578,2.4000000953674316 -7.7179999351501465,2.4000000953674316 -7.7179999351501465,2.4000000953674316 C-7.7179999351501465,2.4000000953674316 -3.138000011444092,2.4000000953674316 -3.138000011444092,2.4000000953674316 C-3.138000011444092,2.4000000953674316 -9.687999725341797,-4.159999847412109 -9.687999725341797,-4.159999847412109 C-10.477999687194824,-4.940000057220459 -10.477999687194824,-6.199999809265137 -9.687999725341797,-6.989999771118164 C-9.687999725341797,-6.989999771118164 -6.868000030517578,-9.809000015258789 -6.868000030517578,-9.809000015258789 C-6.078000068664551,-10.598999977111816 -4.817999839782715,-10.598999977111816 -4.038000106811523,-9.809000015258789z"></path></g></g></g></svg>