<svg xmlns="http://www.w3.org/2000/svg" viewBox="0 0 88 88" width="88" height="88" preserveAspectRatio="xMidYMid meet" style="width: 100%; height: 100%; transform: translate3d(0px, 0px, 0px);"><defs><clipPath id="__lottie_element_178"><rect width="88" height="88" x="0" y="0"></rect></clipPath></defs><g clip-path="url(#__lottie_element_178)"><g transform="matrix(1,0,0,1,44,44)" opacity="1" style="display: block;"><g opacity="1" transform="matrix(1,0,0,1,0,0)"><path fill="rgb(255,255,255)" fill-opacity="1" d=" M-14,-20 C-14,-20 -18,-20 -18,-20 C-19.049999237060547,-20 -19.920000076293945,-19.18000030517578 -19.989999771118164,-18.149999618530273 C-19.989999771118164,-18.149999618530273 -20,-18 -20,-18 C-20,-18 -20,-12 -20,-12 C-20,-12 -26,-12 -26,-12 C-27.049999237060547,-12 -27.920000076293945,-11.180000305175781 -27.989999771118164,-10.149999618530273 C-27.989999771118164,-10.149999618530273 -28,-10 -28,-10 C-28,-10 -28,-6 -28,-6 C-28,-4.949999809265137 -27.18000030517578,-4.079999923706055 -26.149999618530273,-4.010000228881836 C-26.149999618530273,-4.010000228881836 -26,-4 -26,-4 C-26,-4 -14,-4 -14,-4 C-12.949999809265137,-4 -12.079999923706055,-4.820000171661377 -12.010000228881836,-5.849999904632568 C-12.010000228881836,-5.849999904632568 -12,-6 -12,-6 C-12,-6 -12,-18 -12,-18 C-12,-19.049999237060547 -12.819999694824219,-19.920000076293945 -13.850000381469727,-19.989999771118164 C-13.850000381469727,-19.989999771118164 -14,-20 -14,-20z M18,-20 C18,-20 14,-20 14,-20 C12.949999809265137,-20 12.079999923706055,-19.18000030517578 12.010000228881836,-18.149999618530273 C12.010000228881836,-18.149999618530273 12,-18 12,-18 C12,-18 12,-6 12,-6 C12,-4.949999809265137 12.819999694824219,-4.079999923706055 13.850000381469727,-4.010000228881836 C13.850000381469727,-4.010000228881836 14,-4 14,-4 C14,-4 26,-4 26,-4 C27.049999237060547,-4 27.920000076293945,-4.820000171661377 27.989999771118164,-5.849999904632568 C27.989999771118164,-5.849999904632568 28,-6 28,-6 C28,-6 28,-10 28,-10 C28,-11.050000190734863 27.18000030517578,-11.920000076293945 26.149999618530273,-11.989999771118164 C26.149999618530273,-11.989999771118164 26,-12 26,-12 C26,-12 20,-12 20,-12 C20,-12 20,-18 20,-18 C20,-19.049999237060547 19.18000030517578,-19.920000076293945 18.149999618530273,-19.989999771118164 C18.149999618530273,-19.989999771118164 18,-20 18,-20z M-14,4 C-14,4 -26,4 -26,4 C-27.049999237060547,4 -27.920000076293945,4.820000171661377 -27.989999771118164,5.849999904632568 C-27.989999771118164,5.849999904632568 -28,6 -28,6 C-28,6 -28,10 -28,10 C-28,11.050000190734863 -27.18000030517578,11.920000076293945 -26.149999618530273,11.989999771118164 C-26.149999618530273,11.989999771118164 -26,12 -26,12 C-26,12 -20,12 -20,12 C-20,12 -20,18 -20,18 C-20,19.049999237060547 -19.18000030517578,19.920000076293945 -18.149999618530273,19.989999771118164 C-18.149999618530273,19.989999771118164 -18,20 -18,20 C-18,20 -14,20 -14,20 C-12.949999809265137,20 -12.079999923706055,19.18000030517578 -12.010000228881836,18.149999618530273 C-12.010000228881836,18.149999618530273 -12,18 -12,18 C-12,18 -12,6 -12,6 C-12,4.949999809265137 -12.819999694824219,4.079999923706055 -13.850000381469727,4.010000228881836 C-13.850000381469727,4.010000228881836 -14,4 -14,4z M26,4 C26,4 14,4 14,4 C12.949999809265137,4 12.079999923706055,4.820000171661377 12.010000228881836,5.849999904632568 C12.010000228881836,5.849999904632568 12,6 12,6 C12,6 12,18 12,18 C12,19.049999237060547 12.819999694824219,19.920000076293945 13.850000381469727,19.989999771118164 C13.850000381469727,19.989999771118164 14,20 14,20 C14,20 18,20 18,20 C19.049999237060547,20 19.920000076293945,19.18000030517578 19.989999771118164,18.149999618530273 C19.989999771118164,18.149999618530273 20,18 20,18 C20,18 20,12 20,12 C20,12 26,12 26,12 C27.049999237060547,12 27.920000076293945,11.180000305175781 27.989999771118164,10.149999618530273 C27.989999771118164,10.149999618530273 28,10 28,10 C28,10 28,6 28,6 C28,4.949999809265137 27.18000030517578,4.079999923706055 26.149999618530273,4.010000228881836 C26.149999618530273,4.010000228881836 26,4 26,4z M28,-28 C32.41999816894531,-28 36,-24.420000076293945 36,-20 C36,-20 36,20 36,20 C36,24.420000076293945 32.41999816894531,28 28,28 C28,28 -28,28 -28,28 C-32.41999816894531,28 -36,24.420000076293945 -36,20 C-36,20 -36,-20 -36,-20 C-36,-24.420000076293945 -32.41999816894531,-28 -28,-28 C-28,-28 28,-28 28,-28z"></path></g></g></g></svg>