<svg xmlns="http://www.w3.org/2000/svg" viewBox="0 0 88 88" width="88" height="88" preserveAspectRatio="xMidYMid meet" style="width: 100%; height: 100%; transform: translate3d(0px, 0px, 0px);"><defs><clipPath id="__lottie_element_346"><rect width="88" height="88" x="0" y="0"></rect></clipPath><filter id="__lottie_element_351" filterUnits="objectBoundingBox" x="0%" y="0%" width="100%" height="100%"><feComponentTransfer in="SourceGraphic"><feFuncA type="table" tableValues="1.0 0.0"></feFuncA></feComponentTransfer></filter><mask id="__lottie_element_350" mask-type="alpha"><g filter="url(#__lottie_element_351)"><rect width="88" height="88" x="0" y="0" fill="#ffffff" opacity="0"></rect><g transform="matrix(1,0,0,1,47.45903396606445,41.74003601074219)" opacity="1" style="display: none;"><g opacity="1" transform="matrix(1,0,0,1,0,0)"><path fill="rgb(255,255,255)" fill-opacity="1" d=" M-36.767494201660156,-31.09149169921875 C-36.76887512207031,-31.101707458496094 -35.50258255004883,-32.377418518066406 -33.94157409667969,-33.93842697143555 C-33.94157409667969,-33.93842697143555 -33.93842697143555,-33.94157409667969 -33.93842697143555,-33.94157409667969 C-32.377418518066406,-35.50258255004883 -31.108877182006836,-36.7617073059082 -31.10749053955078,-36.75149154663086 C-31.10749053955078,-36.75149154663086 -31.10749053955078,-36.75149154663086 -31.10749053955078,-36.75149154663086 C-31.10610580444336,-36.741275787353516 -32.37240219116211,-35.4655647277832 -33.93341064453125,-33.90455627441406 C-33.93341064453125,-33.90455627441406 -33.93655776977539,-33.90140914916992 -33.93655776977539,-33.90140914916992 C-35.49756622314453,-32.34040069580078 -36.766109466552734,-31.081275939941406 -36.767494201660156,-31.09149169921875 C-36.767494201660156,-31.09149169921875 -36.767494201660156,-31.09149169921875 -36.767494201660156,-31.09149169921875z"></path></g></g></g></mask></defs><g clip-path="url(#__lottie_element_346)"><g mask="url(#__lottie_element_350)" style="display: block;"><g transform="matrix(1,0,0,1,44,44)" opacity="1"><g opacity="1" transform="matrix(1,0,0,1,0,0)"><path fill="rgb(255,255,255)" fill-opacity="1" d=" M-0.4399999976158142,-25.09600067138672 C-0.15000000596046448,-24.736000061035156 0,-24.29599952697754 0,-23.84600067138672 C0,-23.84600067138672 0,23.833999633789062 0,23.833999633789062 C0,24.93400001525879 -0.8999999761581421,25.833999633789062 -2,25.833999633789062 C-2.450000047683716,25.833999633789062 -2.890000104904175,25.673999786376953 -3.25,25.393999099731445 C-3.25,25.393999099731445 -20,11.994000434875488 -20,11.994000434875488 C-20,11.994000434875488 -24,11.994000434875488 -24,11.994000434875488 C-28.420000076293945,11.994000434875488 -32,8.413999557495117 -32,3.99399995803833 C-32,3.99399995803833 -32,-4.00600004196167 -32,-4.00600004196167 C-32,-8.425999641418457 -28.420000076293945,-12.005999565124512 -24,-12.005999565124512 C-24,-12.005999565124512 -20,-12.005999565124512 -20,-12.005999565124512 C-20,-12.005999565124512 -3.25,-25.4060001373291 -3.25,-25.4060001373291 C-2.390000104904175,-26.09600067138672 -1.1299999952316284,-25.95599937438965 -0.4399999976158142,-25.09600067138672z M13.777999877929688,-28.895999908447266 C24.81800079345703,-23.615999221801758 31.99799919128418,-12.456000328063965 31.99799919128418,-0.006000000052154064 C31.99799919128418,12.454000473022461 24.808000564575195,23.624000549316406 13.748000144958496,28.893999099731445 C11.758000373840332,29.8439998626709 9.368000030517578,29.003999710083008 8.418000221252441,27.003999710083008 C7.4679999351501465,25.013999938964844 8.317999839782715,22.624000549316406 10.307999610900879,21.673999786376953 C18.607999801635742,17.724000930786133 23.99799919128418,9.343999862670898 23.99799919128418,-0.006000000052154064 C23.99799919128418,-9.345999717712402 18.618000030517578,-17.715999603271484 10.338000297546387,-21.676000595092773 C8.338000297546387,-22.625999450683594 7.498000144958496,-25.016000747680664 8.447999954223633,-27.006000518798828 C9.39799976348877,-29.006000518798828 11.788000106811523,-29.84600067138672 13.777999877929688,-28.895999908447266z M8,-13.866000175476074 C12.779999732971191,-11.095999717712402 16,-5.926000118255615 16,-0.006000000052154064 C16,5.914000034332275 12.779999732971191,11.083999633789062 8,13.854000091552734 C8,13.854000091552734 8,-13.866000175476074 8,-13.866000175476074z"></path></g></g></g><g transform="matrix(1,0,0,1,41.20903396606445,46.86503601074219)" opacity="1" style="display: none;"><g opacity="1" transform="matrix(1,0,0,1,0,0)"><path fill="rgb(255,255,255)" fill-opacity="1" d=" M-36.767494201660156,-31.09149169921875 C-36.76887512207031,-31.101707458496094 -35.50258255004883,-32.377418518066406 -33.94157409667969,-33.93842697143555 C-33.94157409667969,-33.93842697143555 -33.93842697143555,-33.94157409667969 -33.93842697143555,-33.94157409667969 C-32.377418518066406,-35.50258255004883 -31.108877182006836,-36.7617073059082 -31.10749053955078,-36.75149154663086 C-31.10749053955078,-36.75149154663086 -31.10749053955078,-36.75149154663086 -31.10749053955078,-36.75149154663086 C-31.10610580444336,-36.741275787353516 -32.37240219116211,-35.4655647277832 -33.93341064453125,-33.90455627441406 C-33.93341064453125,-33.90455627441406 -33.93655776977539,-33.90140914916992 -33.93655776977539,-33.90140914916992 C-35.49756622314453,-32.34040069580078 -36.766109466552734,-31.081275939941406 -36.767494201660156,-31.09149169921875 C-36.767494201660156,-31.09149169921875 -36.767494201660156,-31.09149169921875 -36.767494201660156,-31.09149169921875z"></path></g></g></g></svg>