<svg xmlns="http://www.w3.org/2000/svg" viewBox="0 0 88 88" width="88" height="88" preserveAspectRatio="xMidYMid meet" style="width: 100%; height: 100%; transform: translate3d(0px, 0px, 0px);"><defs><clipPath id="__lottie_element_168"><rect width="88" height="88" x="0" y="0"></rect></clipPath></defs><g clip-path="url(#__lottie_element_168)"><g transform="matrix(1,0,0,1,44,44)" opacity="1" style="display: block;"><g opacity="1" transform="matrix(1,0,0,1,0,0)"><path fill="rgb(255,255,255)" fill-opacity="1" d=" M19.757999420166016,-12.70199966430664 C19.01799964904785,-13.442000389099121 17.83799934387207,-13.482000350952148 17.058000564575195,-12.821999549865723 C17.058000564575195,-12.821999549865723 16.92799949645996,-12.70199966430664 16.92799949645996,-12.70199966430664 C16.92799949645996,-12.70199966430664 5.618000030517578,-1.3919999599456787 5.618000030517578,-1.3919999599456787 C4.877999782562256,-0.6520000100135803 4.8379998207092285,0.5180000066757202 5.498000144958496,1.3079999685287476 C5.498000144958496,1.3079999685287476 5.618000030517578,1.437999963760376 5.618000030517578,1.437999963760376 C5.618000030517578,1.437999963760376 16.92799949645996,12.748000144958496 16.92799949645996,12.748000144958496 C17.667999267578125,13.48799991607666 18.83799934387207,13.527999877929688 19.628000259399414,12.868000030517578 C19.628000259399414,12.868000030517578 19.757999420166016,12.748000144958496 19.757999420166016,12.748000144958496 C19.757999420166016,12.748000144958496 22.58799934387207,9.918000221252441 22.58799934387207,9.918000221252441 C23.327999114990234,9.178000450134277 23.368000030517578,8.008000373840332 22.697999954223633,7.2179999351501465 C22.697999954223633,7.2179999351501465 22.58799934387207,7.0879998207092285 22.58799934387207,7.0879998207092285 C22.58799934387207,7.0879998207092285 15.517999649047852,0.017999999225139618 15.517999649047852,0.017999999225139618 C15.517999649047852,0.017999999225139618 22.58799934387207,-7.052000045776367 22.58799934387207,-7.052000045776367 C23.327999114990234,-7.791999816894531 23.368000030517578,-8.961999893188477 22.697999954223633,-9.751999855041504 C22.697999954223633,-9.751999855041504 22.58799934387207,-9.881999969482422 22.58799934387207,-9.881999969482422 C22.58799934387207,-9.881999969482422 19.757999420166016,-12.70199966430664 19.757999420166016,-12.70199966430664z M-19.761999130249023,-12.70199966430664 C-19.761999130249023,-12.70199966430664 -22.582000732421875,-9.881999969482422 -22.582000732421875,-9.881999969482422 C-23.371999740600586,-9.092000007629395 -23.371999740600586,-7.831999778747559 -22.582000732421875,-7.052000045776367 C-22.582000732421875,-7.052000045776367 -15.51200008392334,0.017999999225139618 -15.51200008392334,0.017999999225139618 C-15.51200008392334,0.017999999225139618 -22.582000732421875,7.0879998207092285 -22.582000732421875,7.0879998207092285 C-23.371999740600586,7.877999782562256 -23.371999740600586,9.137999534606934 -22.582000732421875,9.918000221252441 C-22.582000732421875,9.918000221252441 -19.761999130249023,12.748000144958496 -19.761999130249023,12.748000144958496 C-18.972000122070312,13.527999877929688 -17.711999893188477,13.527999877929688 -16.93199920654297,12.748000144958496 C-16.93199920654297,12.748000144958496 -5.611999988555908,1.437999963760376 -5.611999988555908,1.437999963760376 C-4.831999778747559,0.6579999923706055 -4.831999778747559,-0.6119999885559082 -5.611999988555908,-1.3919999599456787 C-5.611999988555908,-1.3919999599456787 -16.93199920654297,-12.70199966430664 -16.93199920654297,-12.70199966430664 C-17.711999893188477,-13.491999626159668 -18.972000122070312,-13.491999626159668 -19.761999130249023,-12.70199966430664z M28,-28 C32.41999816894531,-28 36,-24.420000076293945 36,-20 C36,-20 36,20 36,20 C36,24.420000076293945 32.41999816894531,28 28,28 C28,28 -28,28 -28,28 C-32.41999816894531,28 -36,24.420000076293945 -36,20 C-36,20 -36,-20 -36,-20 C-36,-24.420000076293945 -32.41999816894531,-28 -28,-28 C-28,-28 28,-28 28,-28z"></path></g></g></g></svg>