<svg xmlns:xlink="http://www.w3.org/1999/xlink" xmlns="http://www.w3.org/2000/svg" data-v-9b77863e="" aria-hidden="true" class="coins-icon" width="1024"  height="1024" ><defs><symbol id="bili-icon_dingdao_Bbi" viewBox="0 0 1024 1024"><path d="M410.2144 445.0816h136.9088a64.8192 64.8192 0 0 0 0-129.6384h-128a8.8576 8.8576 0 0 0-8.9088 8.8576v120.7808z m246.784 24.4736a164.5568 164.5568 0 0 1-86.4256 304.64H419.1232c-47.3088 0-85.6576-38.4-85.6576-85.7088V324.3008c0-47.3088 38.4-85.6576 85.6576-85.6576h128.0512a141.6192 141.6192 0 0 1 109.9264 230.912z m-86.3744 52.3264H410.2144v166.6048c0 4.9152 3.9936 8.8576 8.8576 8.8576h151.552a87.7568 87.7568 0 0 0 0-175.4624zM512 1019.7504C231.5776 1019.7504 4.2496 792.4224 4.2496 512 4.2496 231.5776 231.5776 4.2496 512 4.2496c280.4224 0 507.7504 227.328 507.7504 507.7504 0 280.4224-227.328 507.7504-507.7504 507.7504z m0-76.8a430.9504 430.9504 0 1 0 0-861.9008 430.9504 430.9504 0 0 0 0 861.9008z" fill="#FFAE00"></path></symbol></defs><use data-v-9b77863e="" xlink:href="#bili-icon_dingdao_Bbi"></use></svg>