<svg xmlns:xlink="http://www.w3.org/1999/xlink" xmlns="http://www.w3.org/2000/svg" data-v-9b77863e="" aria-hidden="true" class="coins-icon" width="1024"  height="1024" ><defs><symbol id="bili-icon_dingdao_yingbi" viewBox="0 0 1024 1024"><path d="M473.6 360.0896V306.0224H346.112a38.4 38.4 0 0 1 0-76.8h331.776a38.4 38.4 0 1 1 0 76.8h-127.488v54.0672c120.6784 18.2272 213.3504 120.832 213.3504 244.992v23.296a38.4 38.4 0 0 1-76.8 0v-23.296c0-81.408-58.3168-149.8112-136.5504-166.912V768a38.4 38.4 0 1 1-76.8 0V438.1696c-78.2336 17.1008-136.5504 85.504-136.5504 166.912v23.296a38.4 38.4 0 0 1-76.8 0v-23.296c0-124.16 92.672-226.816 213.3504-244.992zM512 1019.7504C231.5776 1019.7504 4.2496 792.4224 4.2496 512 4.2496 231.5776 231.5776 4.2496 512 4.2496c280.4224 0 507.7504 227.328 507.7504 507.7504 0 280.4224-227.328 507.7504-507.7504 507.7504z m0-76.8a430.9504 430.9504 0 1 0 0-861.9008 430.9504 430.9504 0 0 0 0 861.9008z" fill="#00A1D6"></path></symbol></defs><use data-v-9b77863e="" xlink:href="#bili-icon_dingdao_yingbi"></use></svg>